<?xml version="1.0" encoding="UTF-8"?>
<svg id="Layer_1" xmlns="http://www.w3.org/2000/svg" version="1.1" viewBox="0 0 173.01 162.81">
  <!-- Generator: Adobe Illustrator 29.8.1, SVG Export Plug-In . SVG Version: 2.1.1 Build 2)  -->
  <defs>
    <style>
      .st0 {
        fill: #019191;
      }
    </style>
  </defs>
  <g>
    <path class="st0" d="M58.98,136.26c-2.38-2.04-5.33-3.3-8.41-3.82-7.45-1.25-12.68-2.16-20.42-5.06-2.85-1.07-6.34-2.53-8.78-4.34-9.83-7.29,6.98-12.43,12.34-14.04,18.37-5.53,68.03-10.38,91-11.73,4.37-.26,8.67-1.33,12.54-3.39,4.61-2.45,8.61-6.31,4.32-11.53-1.15-1.4-2.64-2.48-4.27-3.26-7.19-3.42-11.79-3.92-19.59-7.25-.95-.41-1.91-.89-2.65-1.64,0-.6,3.7-1.79,4.35-1.98,3.91-1.15,8.44-1.72,12.5-2.2,3.98-.47,7.99-.74,11.98-.91.27-.01.84.17.79-.22-5.06-.26-10.19-.38-15.27-.24-5.77.16-18.54.45-23.4,3.05-4.07,2.17-2.08,4.62,1.15,6.11,4.21,1.94,9.66,2.94,14.13,4.64,3.96,1.51,15.77,6.35,7.8,10.97l-.04.02c-2.61,1.52-5.56,2.38-8.58,2.5l-2.57.1c-4.13.11-8.26-.59-12.14-2.09-.55-.21-1.11-.42-1.69-.62-3.49-1.22-2.61-3.44-2.42-6.42.58-9.13,2.06-18.26,3.01-27.35-.3-.86-1.11-.98-1.77-.37l-12.28,17.62c-.1-4.31-.67-8.6-1-12.91-.22-2.93-.09-5.97-.4-8.89-.38-3.59-1.68-7.58-2.64-11.1-1.36-4.95-2.96-9.85-4.43-14.77l-1.2-.48-.79.84-4.86,18.71-3.34,10.93-5.77-21.67L47.18,5.76c-.42-.64-1.56-1.19-2.01-.38l1.3,62.53c-.14.74-.68-.41-.79-.6-1.3-2.09-2.27-4.41-3.58-6.5-5.71-4.62-11.12-10.62-16.94-15-.74-.56-2.03-1.36-2.47.02-.21.66.81,3.53,1.02,4.44,1.37,5.98,2.66,12,4.11,17.97,1.92,7.87,5.5,17.79,6.22,25.66.47,5.13,1.01,8.25-2.16,10-2.33.63-4.64,1.33-6.93,2.12-5.46,1.91-18.82,6.93-15.68,14.78,3.46,8.64,26.43,12.68,34.49,16.61,8.47,4.13,3.04,7.9-2.71,10.48-10.95,4.92-26.98,7.68-38.93,9.46-.39.06-.38-.12-.34.45h14.14c19.21-.73,22.93.2,36.52-6.65,2.79-1.41,5.25-3.47,6.9-6.13,2.14-3.45,2.19-6.59-.36-8.78ZM78.46,113.34c-6.2,2.06-7.67,5.41-7.59,8.25s1.72,5.15,3.92,6.07c4.38,1.82,21.03,5.25,25.02,7.87,3.33,2.18,8.26,5.98,3.85,10.36-5.5,5.47-14.94,7.37-21.59,10.07-.36.15-.94.21-1.1.69,7.06-.52,14.27-1.25,21.22-2.81,4.39-.98,16.02-4.66,18.48-9.14,2.46-4.5-2.92-7.64-5.68-9.17-6.39-3.55-25.64-6.96-31.93-10.85-2.08-1.29-6.02-4.23-4.09-7.49,2.08-3.51,12.52-6.88,16.18-8.09,0,0-4.29.13-16.69,4.25ZM49.74,15.03c4.33,6.68,8.4,13.55,13.45,19.72,2.84,9.76,4.69,20.39,7.92,29.98,1.83,5.45,5.19,10.22,7.87,15.24l.53-8.71c.02-7.84-.43-15.68.4-23.43.53-4.92,1.31-9.86,1.43-14.8l.69,1.69c5.1,13.34,4.18,26.96,5.68,40.76.44,4.02.88,3.7,3.14,6.54.53.67,1.01,1.42,1.45,2.15.56.57,1.22-2.09,1.32-2.49,1.1-4.14,2.02-6.58,3.79-10.5,1.18-2.61,2.39-5.24,3.78-7.74-.62,6.07-1.8,12.11-2.37,18.19-.22,2.28-.64,4.32.42,6.47,1.26,2.56,4.07,3.97,6.45,5.25-2.69-.04-5.41.12-8.09-.26-5.34-.76-9.9-4.39-13.93-7.72-.54-.02-.25.27-.29.6-.27,2.3-.25,4.66-.57,6.95-.05.35.19.38-.41.4l-2.94-3.63-13.27-21.22c-.38.22-.05,1.4.02,1.77.62,2.91,1.63,5.78,2.03,8.74l-2.3-2.55c-3.9-6.31-8.27-12.35-12.21-18.63-.93-1.48-2.44-3.7-3.09-5.23-.05-.12-.12-.36.06-.36,2.38,2.02,4.9,3.89,7.29,5.9.16.13.05.44.57.21l-10.03-44.84,1.21,1.54ZM26.88,51.09l13.1,11.75c4.7,8.26,7.93,17.76,15.34,24.09.78.66,3.92,3.14,4.78,2.95.27-.06.45-.2.49-.48l-4.65-12.32,14.17,14.45,2.37,1.77,2.3,1.18c-1.32.09-2.68.14-4,.02-1.62-.15-4.41-1.14-5.85-.64-.7.24-1.09,1.1-2.19.45-6.27-3.11-11.87-7.42-17.97-10.83l-.3.38-.05,7.43-8.87-18.61c-.05-1.74.19-3.49-.46-5.17l-8.24-16.4Z"/>
    <path class="st0" d="M155.02,77.26c-10.2-3.27-20.84-4.87-31.37-6.72,0,.34.68.42.96.51,7.75,2.55,15.7,4.67,23.29,7.68,5.81,2.31,17.75,6.94,10,14.64-6.98,6.94-28.91,11.93-38.77,14.14-6.66,1.49-13.61,2.49-20.18,4.24-5.54,1.48-20.19,5.93-9.29,12.33,6.29,3.69,14.79,4.7,21.78,6.6-.06-.39-.45-.39-.73-.51-3.44-1.46-6.99-2.6-10.28-4.42-6.76-3.74-6.83-6.29.66-8.92,10.85-3.8,23.1-4.61,34.36-6.79,9.91-1.92,31.74-7.52,35.41-18.18,2.84-8.27-10.05-12.74-15.83-14.59Z"/>
  </g>
  <path class="st0" d="M62.22,108.92c-7.4,1.96-21.54,3.54-26.62,7.66-4.82,3.91,2.49,7.04,5.62,8.27,3.72,1.46,7.63,2.55,11.48,3.62l1.24.5c-6.73-1.12-13.61-2.43-20.01-4.83-1.91-.71-4.23-1.69-5.86-2.9-4.38-3.25-.84-5.85,3.06-7.55,2.68-1.16,6.85-2.59,9.75-2.92,0,0,7.88-1.21,21.35-1.85Z"/>
</svg>